@startuml
!include color.inc

_仕様 -[hidden]--> _ユニークキー
_ユニークキー -[hidden]--> _集約ルート
_集約ルート -[hidden]--> イベント履歴
イベント履歴 -[hidden]-> ログインユーザ
ログインユーザ -[hidden]-> トランザクション
トランザクション -[hidden]-> ID採番
ID採番 -[hidden]-> エロクアント拡張
エロクアント拡張 -[hidden]-> 配列コピー

package 共通 <<Folder>> {
  class エンティティ
  interface 集約ルート
  class 値オブジェクト
  class ドメインイベント
  interface 仕様
  package 仕様 as _仕様 {
   interface 検証
   interface 選択
   interface 選択リポジトリインターフェース
   class 選択リポジトリ
  }
  package ユニークキー as _ユニークキー {
   interface ユニークキー
   class 単一ユニークキー
   class 複合ユニークキー
  }
  package 集約ルート as _集約ルート {
   class 集約ルートチェッカー
   interface 集約ルートチェッカーインターフェース
   class 集約ルートインスタンス例外
  }
  package イベント履歴 {
   class イベント履歴エロクアント
   class イベント履歴リポジトリ
  }
  package ログインユーザ {
   class ログインユーザ
   interface ログインユーザインターフェース
  }
  package トランザクション {
   class DBトランザクション
   interface トランザクションインターフェース
  }
  package ID採番 {
   class DBシーケンス
   interface ID採番インターフェース
  }
  package エロクアント拡張 {
   class 複合主キー設定
  }
  package 配列コピー {
   class ディープコピー
  }
}
@enduml